<svg width="80" height="32" viewBox="0 0 80 32" fill="none" xmlns="http://www.w3.org/2000/svg">
<path d="M10.2149 10.9641C10.1428 11.2132 9.93447 11.4022 9.67482 11.454C8.80615 11.635 7.97683 11.9638 7.22475 12.4254C5.16596 13.709 4.10783 16.523 4.49361 18.9418C5.0211 22.2619 8.45293 21.8536 10.2897 21.3821C10.5314 21.3198 10.7887 21.3881 10.9649 21.5613C11.141 21.7345 11.2093 21.9863 11.1439 22.222C10.9573 22.8903 10.7503 23.5432 10.6267 23.9309C10.5556 24.1551 10.373 24.3288 10.1417 24.3923C1.18459 26.7957 -1.63867 19.1195 1.8412 13.0006C3.48854 9.94074 6.63557 7.9278 10.1653 7.67625C10.3915 7.66187 10.6108 7.75524 10.754 7.92688C10.8972 8.09852 10.9465 8.32721 10.8865 8.54071L10.2149 10.9641Z" fill="white"/>
<path d="M22.1637 24.3962C22.1637 24.4854 22.1196 24.5254 22.0007 24.4939L18.9153 23.9663C18.8673 23.9505 18.8403 23.9009 18.8539 23.8533L18.9011 23.5995C19.6482 19.5956 19.2231 18.7019 19.0058 18.5035C18.7384 18.321 18.4334 18.1977 18.1122 18.142C17.9364 18.0962 17.7488 18.127 17.5979 18.2263C17.447 18.3257 17.3474 18.484 17.3249 18.6604L16.6463 23.9279C16.6056 24.2448 16.3235 24.4787 15.9968 24.4662L13.8923 24.3793C13.7203 24.3716 13.5591 24.2955 13.4461 24.1687C13.333 24.0418 13.2781 23.8753 13.294 23.7079L14.9473 6.53807C14.9643 6.35802 15.0616 6.19441 15.2133 6.09072C15.3649 5.98702 15.5556 5.95374 15.7346 5.99972L18.3587 6.67728C18.6635 6.75648 18.8614 7.04377 18.8216 7.34946L17.991 13.616C17.9486 13.9273 18.1556 14.2191 18.4689 14.2897C19.5723 14.4956 20.6047 14.9699 21.4708 15.6687C22.3936 16.51 23.7115 18.7627 22.1589 24.3955L22.1637 24.3962Z" fill="white"/>
<path fill-rule="evenodd" clip-rule="evenodd" d="M25.5091 10.685C25.3984 10.9645 25.4063 11.2756 25.5312 11.5494L25.5304 11.5502C25.7924 12.0311 26.3402 12.2942 26.8901 12.2031C27.0779 12.1826 27.2611 12.1325 27.4325 12.0547C27.7443 11.9292 27.9916 11.6868 28.119 11.3817C28.1683 11.2467 28.1905 11.1036 28.1844 10.9603C28.1398 10.4862 27.8386 10.0717 27.395 9.87429C26.9515 9.67688 26.4337 9.7268 26.0382 10.0051C25.7993 10.178 25.6158 10.4138 25.5091 10.685ZM28.6722 14.2193C28.6579 14.207 28.6385 14.202 28.6199 14.206L25.3172 14.899C25.2908 14.905 25.2716 14.9272 25.2699 14.9536L24.6322 24.8825L24.7377 24.9132C24.981 24.9863 27.1531 25.0355 27.5869 25.0448H27.716L28.6923 14.2683C28.694 14.2498 28.6865 14.2316 28.6722 14.2193Z" fill="white"/>
<path d="M42.7619 1.69803L39.1002 22.7656C39.0546 23.0152 38.873 23.2205 38.6267 23.3007C38.3805 23.3809 38.1091 23.3231 37.9193 23.1501L34.9472 20.3976C34.7409 20.2078 34.4386 20.1563 34.1788 20.2668C33.9189 20.3772 33.7514 20.6283 33.7529 20.9052L33.7789 23.8315C33.7805 24.0651 33.6614 24.2837 33.4622 24.4128C33.263 24.542 33.0105 24.5643 32.7908 24.4722L30.4384 23.4801L30.447 23.3716L31.0493 14.9117C31.0677 14.6637 31.2209 14.4444 31.4506 14.3373C31.6803 14.2301 31.9511 14.2515 32.1602 14.3933L35.5526 16.7121C35.7555 16.8503 36.0174 16.8752 36.2437 16.7778C36.47 16.6803 36.6279 16.4747 36.6604 16.2353L38.5798 1.91952C38.6209 1.61584 38.8614 1.37463 39.1711 1.32656L41.955 0.899717C42.1797 0.865814 42.4075 0.939359 42.5673 1.09744C42.7271 1.25552 42.7995 1.47891 42.7619 1.69803V1.69803Z" fill="white"/>
<path d="M42.7614 1.69823L40.4641 14.915L36.6591 16.2362L38.5785 1.9205C38.6196 1.61682 38.8601 1.37561 39.1698 1.32754L41.9536 0.900693C42.1784 0.866791 42.4062 0.940336 42.566 1.09841C42.7257 1.25649 42.7982 1.47989 42.7606 1.699L42.7614 1.69823Z" fill="white"/>
<path d="M43.0413 0.0791016L41.3038 10.0772L37.2279 11.983L38.5773 1.92029C38.6184 1.61661 38.8589 1.3754 39.1686 1.32733L41.9525 0.899715C42.4304 0.826652 42.8406 1.23273 43.0413 0.0798706V0.0791016Z" fill="white"/>
<path d="M42.7623 1.6972L42.0718 5.66798L37.9156 6.86699L38.5793 1.91562C38.6204 1.61193 38.8609 1.37073 39.1706 1.32265L41.9545 0.89581C42.1793 0.861908 42.407 0.935453 42.5668 1.09353C42.7266 1.25161 42.799 1.47501 42.7615 1.69412L42.7623 1.6972Z" fill="white"/>
<path fill-rule="evenodd" clip-rule="evenodd" d="M48.995 14.3394L51.4955 14.5163C51.8861 14.5447 52.1816 14.8733 52.16 15.2554L51.4727 26.9132C51.0491 31.5054 47.6629 31.8261 46.5505 31.9315C46.5158 31.935 46.4823 31.9377 46.4491 31.9405C46.4242 31.9425 46.3995 31.9445 46.3749 31.9469C45.2936 32.0932 44.1979 31.8033 43.3401 31.1437C42.4823 30.4841 41.9365 29.5117 41.8282 28.4506C41.629 27.2375 42.0664 26.0077 42.9926 25.1766C43.6974 24.6421 44.5446 24.3169 45.4333 24.2399C46.2568 24.2337 46.7953 24.1676 46.7717 24.086C46.7465 24.0214 46.3733 23.9484 45.5191 23.8861C44.2712 23.7969 41.8896 20.9805 41.944 18.9701C41.9652 17.6598 42.5183 16.4113 43.4816 15.4992C44.4189 14.6112 45.6969 14.1516 47 14.2341C47.6889 14.2752 48.3605 14.4621 48.9683 14.7817L48.995 14.3394ZM47.6465 28.3464C47.7011 28.3082 47.7508 28.2638 47.7945 28.2141L47.7953 28.2149C48.0113 27.9615 48.1398 27.6479 48.1622 27.3189C47.3456 27.2366 46.5213 27.2676 45.7137 27.4112C45.482 27.4532 45.2572 27.5254 45.0453 27.6257C44.8906 27.7803 44.8056 27.9888 44.8091 28.2049C44.796 28.4003 44.8714 28.5915 45.0153 28.7278C45.3552 28.906 45.7505 28.9556 46.1254 28.867C46.6636 28.7969 47.1813 28.6197 47.6465 28.3464ZM48.4048 24.3397C48.0332 24.2974 47.8426 24.2366 47.8426 24.1813C47.8489 24.1282 48.0387 24.082 48.4197 24.0667L48.4048 24.3397ZM47.9737 21.5115C48.5074 21.2026 48.8748 20.68 48.9783 20.0825L48.9791 20.0833C49.2308 18.7717 48.5052 17.4677 47.2415 16.9608C46.9537 16.8569 46.6457 16.8172 46.3401 16.8447C46.0803 16.8685 45.8286 16.9459 45.6016 17.0715C45.0672 17.3798 44.6993 17.9027 44.5962 18.5005C44.3451 19.8112 45.0699 21.1141 46.3322 21.6214C46.8692 21.823 47.4699 21.7828 47.9737 21.5115Z" fill="white"/>
<path fill-rule="evenodd" clip-rule="evenodd" d="M64.0721 24.3246L64.5366 24.1654L63.3926 20.943L62.9761 21.1552C62.947 21.1575 62.9257 21.1537 62.9257 21.1168C62.935 20.9531 62.9536 20.81 62.9677 20.7014C62.9705 20.6803 62.973 20.6606 62.9753 20.6423C62.9895 20.5292 63.0037 20.4146 63.0147 20.3054C63.038 20.0764 63.0781 19.8131 63.1183 19.5498C63.1216 19.5284 63.1248 19.507 63.1281 19.4856C63.3737 17.8905 63.6792 15.9062 61.9629 14.9064C60.6572 14.2485 59.1466 14.0921 57.7288 14.468C56.9185 14.6309 56.1315 14.8891 55.385 15.2371C55.3621 15.2522 55.3377 15.2667 55.3131 15.2814C55.1803 15.3606 55.0409 15.4438 55.0913 15.6294L55.9794 17.6336L56.2069 18.1358L56.6966 17.8528C56.7124 17.8428 58.4492 16.8907 59.5514 17.5644C59.7002 17.6601 59.8147 17.7989 59.8789 17.9612C59.8293 17.9443 59.775 17.9282 59.7214 17.9143C57.8837 17.4557 55.952 18.1997 54.9291 19.7601C54.4399 20.5593 54.3001 21.5171 54.541 22.4181C54.8215 23.308 55.5025 24.0242 56.3904 24.3631C56.8408 24.5477 57.3199 24.6564 57.8075 24.6846C58.1152 24.7091 58.4246 24.7063 58.7318 24.6761C59.382 24.6189 60.0107 24.4199 60.5717 24.0939C61.211 24.5571 62.019 24.7391 62.8013 24.5961C63.0973 24.5667 63.3905 24.5153 63.6784 24.4423C63.8107 24.4085 63.9421 24.3692 64.0721 24.3246ZM60.4084 20.7055C60.5463 21.2898 60.2473 21.8886 59.6912 22.1422H59.688C59.3931 22.3082 59.0557 22.3882 58.7157 22.3729C58.3828 22.3641 58.0688 22.2196 57.8497 21.9745C57.6237 21.709 57.567 21.3429 57.7025 21.0239C57.8526 20.6581 58.1418 20.3632 58.5095 20.201C58.5378 20.1872 58.5675 20.1744 58.5984 20.1626C58.7655 20.0922 58.9426 20.0471 59.1235 20.0288C59.3579 20.0029 59.5952 20.0332 59.8148 20.1172C60.0916 20.2185 60.3087 20.4337 60.4084 20.7055Z" fill="white"/>
<path d="M74.6726 15.6486L73.1381 18.472C73.1004 18.5319 73.0035 18.5058 72.9523 18.4435C72.4262 17.8747 71.6453 17.5983 70.8684 17.7059C70.5676 17.7704 70.2818 17.8894 70.0259 18.0566L69.5307 24.0201C69.5199 24.1504 69.4465 24.268 69.3329 24.337C69.2192 24.406 69.0788 24.4183 68.9544 24.3701L66.3083 23.3441C66.2689 23.3218 66.2619 23.2726 66.2729 23.208L67.1728 14.0897C67.1948 13.8651 67.3976 13.6995 67.6278 13.7182L70.3676 13.9405L70.3267 14.4243C71.8586 13.9387 73.5397 14.3709 74.6285 15.5302C74.6708 15.5539 74.6897 15.6038 74.6734 15.6486H74.6726Z" fill="white"/>
<path fill-rule="evenodd" clip-rule="evenodd" d="M76.8189 10.6456C76.7081 10.9251 76.7161 11.2363 76.8409 11.5101C77.1029 11.991 77.6507 12.254 78.2006 12.163C78.3884 12.1426 78.5716 12.0924 78.743 12.0146C79.0546 11.8889 79.3016 11.6465 79.4288 11.3416C79.4782 11.2066 79.5004 11.0635 79.4941 10.9202C79.4498 10.4459 79.1485 10.0313 78.7048 9.83401C78.2611 9.6367 77.7432 9.68698 77.3479 9.96574C77.109 10.1386 76.9255 10.3745 76.8189 10.6456ZM79.9808 14.1803C79.9667 14.1678 79.9473 14.1627 79.9286 14.1665L76.6259 14.8609C76.5996 14.8664 76.5802 14.8885 76.5787 14.9148L75.9402 24.8437L76.0457 24.8744C76.2861 24.9459 78.4105 24.9948 78.879 25.0056L78.8949 25.0059H79.024L80.0003 14.2295C80.0022 14.211 79.9949 14.1927 79.9808 14.1803Z" fill="white"/>
</svg>
